<svg width="509" height="509" viewBox="0 0 509 509" fill="none" xmlns="http://www.w3.org/2000/svg">
<path d="M348.568 158.5V120.5H308.068L295.454 110L285.685 127.5L275.915 110L266.146 127.5L256.376 110L246.607 127.5L236.838 110L227.068 127.5L217.299 110L206.329 120.5H185.068V397H227.068M348.568 158.5H366.068V224.5C366.068 224.5 379.568 225 379.568 235C379.568 245 352.068 253.5 352.068 243.5C352.068 233.5 379.568 243.83 379.568 253.833C379.568 263.83 352.068 274.25 352.068 264.25C352.068 254.25 379.568 262.67 379.568 272.667C379.568 282.67 352.068 295 352.068 285C352.068 275 379.763 281.5 379.568 291.5C379.373 301.5 366.068 305 366.068 305V365.5H348.568M348.568 158.5H285.685V184M348.568 365.5L348.568 397H251.568M348.568 365.5H285.685V333M251.568 397L251.568 375M251.568 397V422.5M227.068 375L227.068 397M227.068 397V422.5" stroke="#EDC664" stroke-width="8" stroke-linecap="round"/>
<path d="M285.911 178.662C278.561 178.402 276.195 184.877 270.699 189.763C227.004 228.6 228.856 302.76 274.399 339.414C278.805 342.96 280.676 347.295 286.322 347.636C293.518 348.071 295.647 341.25 300.917 336.33C343.226 296.829 343.977 225.135 299.478 188.118C294.513 183.988 292.365 178.89 285.911 178.662Z" fill="#C46561" stroke="#9F4040" stroke-width="8" stroke-linecap="round"/>
<path d="M297.815 204.012C305.216 202.779 310.766 201.751 310.766 201.751M283.22 224.774C292.471 223.336 302.543 223.13 302.543 223.13M240.257 246.359C240.257 246.359 250.124 248.003 259.786 248.209M254.03 285.622C254.03 285.622 263.486 288.088 272.736 288.294M291.032 269.999C301.927 269.793 309.738 268.149 309.738 268.149M302.543 311.934C310.766 312.345 317.961 311.728 317.961 311.728M278.287 330.023C270.886 329.612 262.253 326.734 262.253 326.734" stroke="#9F4040" stroke-width="8" stroke-linecap="round"/>
<path d="M192.287 199.107C240.098 209.669 218.466 243.114 223.381 271.342C228.295 299.571 234.327 340.033 194.66 342.521C109.938 347.833 119.167 182.952 192.287 199.107Z" fill="#F0A65F" stroke="#E28540" stroke-width="8" stroke-linecap="round"/>
<path d="M225.48 311.265C225.48 311.265 219.466 315.541 210.317 314.997M188.521 326.723C188.521 326.723 180.205 327.35 172.385 324.979M206.842 285.597C206.842 285.597 197.369 287.481 190.014 286.987M214.529 246.658C214.529 246.658 205.184 242.142 194.873 246.536M153.695 298.588C153.695 298.588 144.649 297.98 138.787 296.15M175.7 226.367C175.7 226.367 167.979 225.848 159.74 227.657M222.098 220.356C222.098 220.356 217.018 215.914 206.271 215.192M178.707 265.078C178.707 265.078 169.398 264.453 162.044 263.959" stroke="#E28540" stroke-width="8" stroke-linecap="round"/>
<path d="M113.068 210H123.068M133.068 210H123.068M123.068 210V200M123.068 210V220" stroke="#EDC664" stroke-width="8" stroke-linecap="round"/>
<path d="M133.068 332L113.068 332" stroke="#EDC664" stroke-width="8" stroke-linecap="round"/>
</svg>
