<svg width="509" height="509" viewBox="0 0 509 509" fill="none" xmlns="http://www.w3.org/2000/svg">
<rect width="509" height="509" fill="white"/>
<path d="M354.568 131.5V93.5H314.068L301.454 83L291.685 100.5L281.915 83L272.146 100.5L262.376 83L252.607 100.5L242.838 83L233.068 100.5L223.299 83L212.329 93.5H191.068V370H233.068M354.568 131.5H372.068V197.5C372.068 197.5 385.568 198 385.568 208C385.568 218 358.068 226.5 358.068 216.5C358.068 206.5 385.568 216.83 385.568 226.833C385.568 236.83 358.068 247.25 358.068 237.25C358.068 227.25 385.568 235.67 385.568 245.667C385.568 255.67 358.068 268 358.068 258C358.068 248 385.763 254.5 385.568 264.5C385.373 274.5 372.068 278 372.068 278V338.5H354.568M354.568 131.5H291.685V157M354.568 338.5L354.568 370H257.568M354.568 338.5H291.685V306M257.568 370L257.568 348M257.568 370V395.5M233.068 348L233.068 370M233.068 370V395.5" stroke="#EDC664" stroke-width="8" stroke-linecap="round"/>
<path d="M291.911 151.662C284.561 151.402 282.196 157.877 276.699 162.763C233.004 201.6 234.856 275.76 280.399 312.414C284.805 315.96 286.676 320.295 292.322 320.636C299.518 321.071 301.647 314.25 306.917 309.33C349.226 269.829 349.977 198.135 305.478 161.118C300.513 156.988 298.365 151.89 291.911 151.662Z" fill="#C46561" stroke="#9F4040" stroke-width="8" stroke-linecap="round"/>
<path d="M303.815 177.012C311.216 175.779 316.766 174.751 316.766 174.751M289.22 197.774C298.471 196.336 308.543 196.13 308.543 196.13M246.257 219.359C246.257 219.359 256.124 221.003 265.786 221.209M260.03 258.622C260.03 258.622 269.486 261.088 278.737 261.294M297.032 242.999C307.927 242.793 315.738 241.149 315.738 241.149M308.543 284.934C316.766 285.345 323.961 284.728 323.961 284.728M284.287 303.023C276.886 302.612 268.253 299.734 268.253 299.734" stroke="#9F4040" stroke-width="8" stroke-linecap="round"/>
<path d="M198.287 172.107C246.098 182.669 224.466 216.114 229.381 244.342C234.295 272.571 240.327 313.033 200.66 315.521C115.938 320.833 125.167 155.952 198.287 172.107Z" fill="#F0A65F" stroke="#E28540" stroke-width="8" stroke-linecap="round"/>
<path d="M231.48 284.265C231.48 284.265 225.466 288.541 216.317 287.997M194.521 299.723C194.521 299.723 186.205 300.35 178.385 297.979M212.842 258.597C212.842 258.597 203.369 260.481 196.014 259.987M220.529 219.658C220.529 219.658 211.184 215.142 200.873 219.536M159.695 271.588C159.695 271.588 150.649 270.98 144.787 269.15M181.7 199.367C181.7 199.367 173.979 198.848 165.74 200.657M228.098 193.356C228.098 193.356 223.018 188.914 212.271 188.192M184.707 238.078C184.707 238.078 175.398 237.453 168.044 236.959" stroke="#E28540" stroke-width="8" stroke-linecap="round"/>
<path d="M109.95 469.05C109.717 469.45 109.567 469.867 109.5 470.3C109.433 470.733 109.4 471.1 109.4 471.4C109.4 472.4 109.75 473.25 110.45 473.95C111.15 474.65 112.067 475.167 113.2 475.5C114.333 475.867 115.55 476.067 116.85 476.1C118.183 476.1 119.45 475.933 120.65 475.6C121.883 475.3 122.883 474.783 123.65 474.05C124.45 473.35 124.867 472.45 124.9 471.35C124.933 470.283 124.517 469.35 123.65 468.55C122.817 467.717 121.433 467.333 119.5 467.4L114.75 467.55C113.75 467.583 112.783 467.467 111.85 467.2C110.95 466.9 110.217 466.467 109.65 465.9C109.117 465.3 108.867 464.567 108.9 463.7C108.933 463.033 109.117 462.35 109.45 461.65C109.817 460.95 110.383 460.283 111.15 459.65C109.983 458.983 109.083 458.083 108.45 456.95C107.817 455.783 107.5 454.5 107.5 453.1C107.533 451.6 107.933 450.267 108.7 449.1C109.467 447.9 110.533 446.967 111.9 446.3C113.267 445.6 114.85 445.25 116.65 445.25C118.117 445.25 119.467 445.55 120.7 446.15L124 446C124.767 445.967 125.55 445.9 126.35 445.8C127.15 445.667 127.783 445.533 128.25 445.4C128.25 445.867 128.2 446.333 128.1 446.8C128.033 447.267 127.967 447.55 127.9 447.65C127.767 447.95 127.583 448.133 127.35 448.2C127.15 448.267 126.917 448.3 126.65 448.3C126.083 448.3 125.5 448.267 124.9 448.2C124.333 448.133 123.767 448.05 123.2 447.95C123.8 448.583 124.267 449.317 124.6 450.15C124.967 450.983 125.15 451.883 125.15 452.85C125.15 454.417 124.733 455.817 123.9 457.05C123.1 458.25 122.017 459.2 120.65 459.9C119.283 460.567 117.75 460.9 116.05 460.9C114.85 460.9 113.717 460.717 112.65 460.35C112.35 460.717 112.133 461.117 112 461.55C111.867 461.983 111.783 462.433 111.75 462.9C111.717 463.467 111.933 463.967 112.4 464.4C112.9 464.833 113.717 465.033 114.85 465L119.95 464.8C121.85 464.733 123.367 464.967 124.5 465.5C125.667 466.033 126.5 466.733 127 467.6C127.533 468.467 127.783 469.383 127.75 470.35C127.717 471.95 127.183 473.367 126.15 474.6C125.117 475.833 123.717 476.8 121.95 477.5C120.183 478.2 118.183 478.533 115.95 478.5C113.217 478.433 111 477.867 109.3 476.8C107.6 475.767 106.75 474.267 106.75 472.3C106.75 471.767 106.85 471.2 107.05 470.6C107.25 470 107.567 469.483 108 469.05C108.433 468.617 108.883 468.517 109.35 468.75L109.95 469.05ZM116.9 458.75C118.267 458.75 119.467 458.3 120.5 457.4C121.567 456.5 122.1 455.167 122.1 453.4C122.1 452.367 121.85 451.4 121.35 450.5C120.883 449.567 120.183 448.8 119.25 448.2C118.35 447.6 117.217 447.3 115.85 447.3C114.083 447.3 112.75 447.817 111.85 448.85C110.983 449.883 110.55 451.15 110.55 452.65C110.55 454.483 111.15 455.967 112.35 457.1C113.55 458.2 115.067 458.75 116.9 458.75ZM149.55 469.5C148.883 469.5 148.35 469.217 147.95 468.65C147.55 468.05 147.317 467.3 147.25 466.4C146.05 467.533 144.683 468.383 143.15 468.95C141.617 469.483 140.15 469.75 138.75 469.75C136.917 469.75 135.333 469.183 134 468.05C132.667 466.883 132 465.25 132 463.15C132 461.317 132.517 459.867 133.55 458.8C134.583 457.7 136.217 456.883 138.45 456.35C140.717 455.783 143.65 455.4 147.25 455.2V454.1C147.25 453.4 147.217 452.65 147.15 451.85C147.083 451.05 146.867 450.3 146.5 449.6C146.167 448.9 145.6 448.333 144.8 447.9C144 447.433 142.883 447.2 141.45 447.2C139.817 447.2 138.6 447.567 137.8 448.3C137 449 136.533 450.067 136.4 451.5C136.267 451.5 136.117 451.517 135.95 451.55C135.783 451.55 135.617 451.55 135.45 451.55C134.85 451.55 134.283 451.467 133.75 451.3C133.217 451.133 132.95 450.783 132.95 450.25C132.95 449.717 133.25 449.167 133.85 448.6C134.45 448 135.25 447.45 136.25 446.95C137.25 446.45 138.35 446.05 139.55 445.75C140.75 445.417 141.933 445.25 143.1 445.25C144.3 445.25 145.433 445.467 146.5 445.9C147.6 446.3 148.483 447 149.15 448C149.817 449 150.117 450.383 150.05 452.15C150.017 453.083 149.983 454.267 149.95 455.7C149.95 457.1 149.95 458.5 149.95 459.9C149.95 460.933 149.95 461.9 149.95 462.8C149.983 463.7 150 464.467 150 465.1C150.033 466 150.133 466.533 150.3 466.7C150.5 466.833 150.783 466.883 151.15 466.85C151.183 466.85 151.2 466.85 151.2 466.85L153.7 466.7C153.9 466.7 154 466.817 154 467.05C154 467.217 153.95 467.467 153.85 467.8C153.783 468.133 153.667 468.383 153.5 468.55C153.3 468.65 152.933 468.783 152.4 468.95C151.9 469.083 151.367 469.217 150.8 469.35C150.267 469.45 149.85 469.5 149.55 469.5ZM147.2 464.5L147.25 457.6C145.85 457.467 144.6 457.4 143.5 457.4C141.3 457.4 139.6 457.617 138.4 458.05C137.2 458.483 136.367 459.1 135.9 459.9C135.433 460.667 135.2 461.583 135.2 462.65C135.2 464.217 135.7 465.367 136.7 466.1C137.7 466.8 138.883 467.15 140.25 467.15C141.45 467.15 142.667 466.917 143.9 466.45C145.167 465.983 146.267 465.333 147.2 464.5ZM186.206 469C185.873 469 185.706 468.833 185.706 468.5C185.706 468.367 185.723 468.183 185.756 467.95C185.789 467.683 185.873 467.45 186.006 467.25C187.173 467.117 187.956 466.833 188.356 466.4C188.789 465.967 189.056 465.333 189.156 464.5C189.223 464.1 189.256 463.317 189.256 462.15C189.289 460.983 189.306 459.717 189.306 458.35C189.306 457.317 189.289 456.35 189.256 455.45C189.256 454.55 189.239 453.867 189.206 453.4C189.106 451.533 188.539 450.15 187.506 449.25C186.473 448.35 185.273 447.883 183.906 447.85C182.506 447.817 181.223 448.267 180.056 449.2C178.889 450.1 178.023 451.3 177.456 452.8C177.456 453 177.456 453.183 177.456 453.35V459.15C177.456 460.617 177.456 461.867 177.456 462.9C177.489 463.9 177.523 464.8 177.556 465.6C177.589 466.067 177.689 466.383 177.856 466.55C178.023 466.683 178.206 466.783 178.406 466.85C178.639 466.883 179.006 466.917 179.506 466.95C180.039 466.983 180.523 467 180.956 467C180.956 467.167 180.939 467.417 180.906 467.75C180.873 468.083 180.823 468.333 180.756 468.5C180.656 468.833 180.473 469 180.206 469H171.656C171.323 469 171.156 468.833 171.156 468.5C171.156 468.367 171.173 468.183 171.206 467.95C171.239 467.683 171.323 467.45 171.456 467.25C172.623 467.117 173.406 466.833 173.806 466.4C174.239 465.967 174.506 465.333 174.606 464.5C174.673 464.1 174.706 463.317 174.706 462.15C174.739 460.983 174.756 459.717 174.756 458.35C174.756 457.317 174.739 456.35 174.706 455.45C174.706 454.55 174.689 453.867 174.656 453.4C174.556 451.533 173.989 450.15 172.956 449.25C171.956 448.35 170.773 447.883 169.406 447.85C168.073 447.817 166.823 448.267 165.656 449.2C164.489 450.1 163.623 451.317 163.056 452.85C163.023 453.783 163.006 454.767 163.006 455.8C163.006 456.8 163.006 457.767 163.006 458.7C163.006 460.2 163.006 461.517 163.006 462.65C163.039 463.783 163.073 464.783 163.106 465.65C163.139 466.35 163.423 466.75 163.956 466.85C164.189 466.883 164.606 466.917 165.206 466.95C165.806 466.983 166.239 467 166.506 467C166.506 467.167 166.489 467.383 166.456 467.65C166.456 467.917 166.423 468.133 166.356 468.3C166.256 468.633 166.139 468.833 166.006 468.9C165.873 468.967 165.773 469 165.706 469H157.356C157.023 469 156.856 468.833 156.856 468.5C156.856 468.367 156.873 468.183 156.906 467.95C156.939 467.683 157.023 467.45 157.156 467.25C158.323 467.117 159.089 466.833 159.456 466.4C159.856 465.967 160.089 465.333 160.156 464.5C160.189 464.067 160.223 463.383 160.256 462.45C160.289 461.517 160.306 460.45 160.306 459.25C160.339 458.017 160.356 456.8 160.356 455.6C160.356 454.467 160.339 453.45 160.306 452.55C160.306 451.617 160.289 450.933 160.256 450.5C160.223 449.833 160.089 449.35 159.856 449.05C159.656 448.75 159.273 448.567 158.706 448.5L156.856 448.3C156.623 448.3 156.506 448.167 156.506 447.9C156.506 447.4 156.673 446.95 157.006 446.55C157.539 446.383 158.206 446.25 159.006 446.15C159.806 446.05 160.506 446 161.106 446C161.839 446 162.356 446.183 162.656 446.55C162.956 446.883 163.106 447.45 163.106 448.25C163.106 448.55 163.106 448.85 163.106 449.15C164.006 447.983 165.106 447.05 166.406 446.35C167.706 445.617 169.089 445.25 170.556 445.25C172.089 445.25 173.406 445.633 174.506 446.4C175.639 447.133 176.456 448.267 176.956 449.8C177.889 448.433 179.056 447.333 180.456 446.5C181.889 445.667 183.423 445.25 185.056 445.25C187.123 445.25 188.789 445.917 190.056 447.25C191.356 448.55 192.006 450.55 192.006 453.25V459.15C192.006 460.617 192.006 461.867 192.006 462.9C192.039 463.9 192.073 464.8 192.106 465.6C192.139 466.067 192.239 466.383 192.406 466.55C192.573 466.683 192.756 466.783 192.956 466.85C193.189 466.883 193.556 466.917 194.056 466.95C194.589 466.983 195.073 467 195.506 467C195.506 467.167 195.489 467.417 195.456 467.75C195.423 468.083 195.373 468.333 195.306 468.5C195.206 468.833 195.023 469 194.756 469H186.206ZM194.492 476.1C197.192 475.833 199.126 475.133 200.292 474C201.459 472.9 202.192 471.067 202.492 468.5C202.559 467.8 202.609 466.567 202.642 464.8C202.709 463 202.742 461.117 202.742 459.15C202.742 457.817 202.726 456.55 202.692 455.35C202.692 454.117 202.676 453.067 202.642 452.2C202.609 451.3 202.559 450.683 202.492 450.35C202.392 449.683 202.242 449.217 202.042 448.95C201.876 448.683 201.559 448.533 201.092 448.5L199.092 448.3C199.059 448.3 198.992 448.267 198.892 448.2C198.792 448.133 198.742 448.033 198.742 447.9C198.742 447.4 198.909 446.95 199.242 446.55C199.776 446.383 200.492 446.25 201.392 446.15C202.292 446.05 203.059 446 203.692 446C204.526 446 205.076 446.15 205.342 446.45C205.609 446.75 205.692 447.367 205.592 448.3C205.492 449.233 205.426 450.85 205.392 453.15C205.359 455.417 205.342 458.033 205.342 461V467.2C205.342 469.3 205.059 471.183 204.492 472.85C203.926 474.517 202.926 475.833 201.492 476.8C200.059 477.767 198.026 478.25 195.392 478.25C195.126 478.25 194.942 478.15 194.842 477.95C194.709 477.717 194.609 477.417 194.542 477.05C194.476 476.683 194.459 476.367 194.492 476.1ZM203.542 440.25C202.742 440.25 202.076 440 201.542 439.5C201.009 439 200.742 438.383 200.742 437.65C200.742 436.95 200.992 436.333 201.492 435.8C202.026 435.267 202.709 435 203.542 435C204.309 435 204.942 435.267 205.442 435.8C205.976 436.3 206.242 436.933 206.242 437.7C206.242 438.4 205.976 439 205.442 439.5C204.942 440 204.309 440.25 203.542 440.25ZM229.286 469.5C228.62 469.5 228.086 469.217 227.686 468.65C227.286 468.05 227.053 467.3 226.986 466.4C225.786 467.533 224.42 468.383 222.886 468.95C221.353 469.483 219.886 469.75 218.486 469.75C216.653 469.75 215.07 469.183 213.736 468.05C212.403 466.883 211.736 465.25 211.736 463.15C211.736 461.317 212.253 459.867 213.286 458.8C214.32 457.7 215.953 456.883 218.186 456.35C220.453 455.783 223.386 455.4 226.986 455.2V454.1C226.986 453.4 226.953 452.65 226.886 451.85C226.82 451.05 226.603 450.3 226.236 449.6C225.903 448.9 225.336 448.333 224.536 447.9C223.736 447.433 222.62 447.2 221.186 447.2C219.553 447.2 218.336 447.567 217.536 448.3C216.736 449 216.27 450.067 216.136 451.5C216.003 451.5 215.853 451.517 215.686 451.55C215.52 451.55 215.353 451.55 215.186 451.55C214.586 451.55 214.02 451.467 213.486 451.3C212.953 451.133 212.686 450.783 212.686 450.25C212.686 449.717 212.986 449.167 213.586 448.6C214.186 448 214.986 447.45 215.986 446.95C216.986 446.45 218.086 446.05 219.286 445.75C220.486 445.417 221.67 445.25 222.836 445.25C224.036 445.25 225.17 445.467 226.236 445.9C227.336 446.3 228.22 447 228.886 448C229.553 449 229.853 450.383 229.786 452.15C229.753 453.083 229.72 454.267 229.686 455.7C229.686 457.1 229.686 458.5 229.686 459.9C229.686 460.933 229.686 461.9 229.686 462.8C229.72 463.7 229.736 464.467 229.736 465.1C229.77 466 229.87 466.533 230.036 466.7C230.236 466.833 230.52 466.883 230.886 466.85C230.92 466.85 230.936 466.85 230.936 466.85L233.436 466.7C233.636 466.7 233.736 466.817 233.736 467.05C233.736 467.217 233.686 467.467 233.586 467.8C233.52 468.133 233.403 468.383 233.236 468.55C233.036 468.65 232.67 468.783 232.136 468.95C231.636 469.083 231.103 469.217 230.536 469.35C230.003 469.45 229.586 469.5 229.286 469.5ZM226.936 464.5L226.986 457.6C225.586 457.467 224.336 457.4 223.236 457.4C221.036 457.4 219.336 457.617 218.136 458.05C216.936 458.483 216.103 459.1 215.636 459.9C215.17 460.667 214.936 461.583 214.936 462.65C214.936 464.217 215.436 465.367 216.436 466.1C217.436 466.8 218.62 467.15 219.986 467.15C221.186 467.15 222.403 466.917 223.636 466.45C224.903 465.983 226.003 465.333 226.936 464.5ZM239.442 469.05C239.209 469.45 239.059 469.867 238.992 470.3C238.926 470.733 238.892 471.1 238.892 471.4C238.892 472.4 239.242 473.25 239.942 473.95C240.642 474.65 241.559 475.167 242.692 475.5C243.826 475.867 245.042 476.067 246.342 476.1C247.676 476.1 248.942 475.933 250.142 475.6C251.376 475.3 252.376 474.783 253.142 474.05C253.942 473.35 254.359 472.45 254.392 471.35C254.426 470.283 254.009 469.35 253.142 468.55C252.309 467.717 250.926 467.333 248.992 467.4L244.242 467.55C243.242 467.583 242.276 467.467 241.342 467.2C240.442 466.9 239.709 466.467 239.142 465.9C238.609 465.3 238.359 464.567 238.392 463.7C238.426 463.033 238.609 462.35 238.942 461.65C239.309 460.95 239.876 460.283 240.642 459.65C239.476 458.983 238.576 458.083 237.942 456.95C237.309 455.783 236.992 454.5 236.992 453.1C237.026 451.6 237.426 450.267 238.192 449.1C238.959 447.9 240.026 446.967 241.392 446.3C242.759 445.6 244.342 445.25 246.142 445.25C247.609 445.25 248.959 445.55 250.192 446.15L253.492 446C254.259 445.967 255.042 445.9 255.842 445.8C256.642 445.667 257.276 445.533 257.742 445.4C257.742 445.867 257.692 446.333 257.592 446.8C257.526 447.267 257.459 447.55 257.392 447.65C257.259 447.95 257.076 448.133 256.842 448.2C256.642 448.267 256.409 448.3 256.142 448.3C255.576 448.3 254.992 448.267 254.392 448.2C253.826 448.133 253.259 448.05 252.692 447.95C253.292 448.583 253.759 449.317 254.092 450.15C254.459 450.983 254.642 451.883 254.642 452.85C254.642 454.417 254.226 455.817 253.392 457.05C252.592 458.25 251.509 459.2 250.142 459.9C248.776 460.567 247.242 460.9 245.542 460.9C244.342 460.9 243.209 460.717 242.142 460.35C241.842 460.717 241.626 461.117 241.492 461.55C241.359 461.983 241.276 462.433 241.242 462.9C241.209 463.467 241.426 463.967 241.892 464.4C242.392 464.833 243.209 465.033 244.342 465L249.442 464.8C251.342 464.733 252.859 464.967 253.992 465.5C255.159 466.033 255.992 466.733 256.492 467.6C257.026 468.467 257.276 469.383 257.242 470.35C257.209 471.95 256.676 473.367 255.642 474.6C254.609 475.833 253.209 476.8 251.442 477.5C249.676 478.2 247.676 478.533 245.442 478.5C242.709 478.433 240.492 477.867 238.792 476.8C237.092 475.767 236.242 474.267 236.242 472.3C236.242 471.767 236.342 471.2 236.542 470.6C236.742 470 237.059 469.483 237.492 469.05C237.926 468.617 238.376 468.517 238.842 468.75L239.442 469.05ZM246.392 458.75C247.759 458.75 248.959 458.3 249.992 457.4C251.059 456.5 251.592 455.167 251.592 453.4C251.592 452.367 251.342 451.4 250.842 450.5C250.376 449.567 249.676 448.8 248.742 448.2C247.842 447.6 246.709 447.3 245.342 447.3C243.576 447.3 242.242 447.817 241.342 448.85C240.476 449.883 240.042 451.15 240.042 452.65C240.042 454.483 240.642 455.967 241.842 457.1C243.042 458.2 244.559 458.75 246.392 458.75ZM271.892 469.75C269.759 469.75 267.909 469.267 266.342 468.3C264.809 467.3 263.626 465.917 262.792 464.15C261.959 462.383 261.526 460.367 261.492 458.1C261.492 455.567 261.976 453.35 262.942 451.45C263.942 449.517 265.309 448 267.042 446.9C268.809 445.8 270.809 445.25 273.042 445.25C275.176 445.25 277.009 445.733 278.542 446.7C280.109 447.667 281.326 449.017 282.192 450.75C283.059 452.483 283.492 454.5 283.492 456.8C283.526 459.333 283.042 461.583 282.042 463.55C281.042 465.483 279.659 467 277.892 468.1C276.159 469.2 274.159 469.75 271.892 469.75ZM272.892 467.3C275.326 467.3 277.192 466.467 278.492 464.8C279.792 463.133 280.442 460.85 280.442 457.95C280.442 454.817 279.676 452.333 278.142 450.5C276.642 448.633 274.626 447.7 272.092 447.7C269.692 447.7 267.826 448.55 266.492 450.25C265.192 451.917 264.542 454.183 264.542 457.05C264.542 460.183 265.292 462.683 266.792 464.55C268.292 466.383 270.326 467.3 272.892 467.3ZM290.419 469.05C290.185 469.45 290.035 469.867 289.969 470.3C289.902 470.733 289.869 471.1 289.869 471.4C289.869 472.4 290.219 473.25 290.919 473.95C291.619 474.65 292.535 475.167 293.669 475.5C294.802 475.867 296.019 476.067 297.319 476.1C298.652 476.1 299.919 475.933 301.119 475.6C302.352 475.3 303.352 474.783 304.119 474.05C304.919 473.35 305.335 472.45 305.369 471.35C305.402 470.283 304.985 469.35 304.119 468.55C303.285 467.717 301.902 467.333 299.969 467.4L295.219 467.55C294.219 467.583 293.252 467.467 292.319 467.2C291.419 466.9 290.685 466.467 290.119 465.9C289.585 465.3 289.335 464.567 289.369 463.7C289.402 463.033 289.585 462.35 289.919 461.65C290.285 460.95 290.852 460.283 291.619 459.65C290.452 458.983 289.552 458.083 288.919 456.95C288.285 455.783 287.969 454.5 287.969 453.1C288.002 451.6 288.402 450.267 289.169 449.1C289.935 447.9 291.002 446.967 292.369 446.3C293.735 445.6 295.319 445.25 297.119 445.25C298.585 445.25 299.935 445.55 301.169 446.15L304.469 446C305.235 445.967 306.019 445.9 306.819 445.8C307.619 445.667 308.252 445.533 308.719 445.4C308.719 445.867 308.669 446.333 308.569 446.8C308.502 447.267 308.435 447.55 308.369 447.65C308.235 447.95 308.052 448.133 307.819 448.2C307.619 448.267 307.385 448.3 307.119 448.3C306.552 448.3 305.969 448.267 305.369 448.2C304.802 448.133 304.235 448.05 303.669 447.95C304.269 448.583 304.735 449.317 305.069 450.15C305.435 450.983 305.619 451.883 305.619 452.85C305.619 454.417 305.202 455.817 304.369 457.05C303.569 458.25 302.485 459.2 301.119 459.9C299.752 460.567 298.219 460.9 296.519 460.9C295.319 460.9 294.185 460.717 293.119 460.35C292.819 460.717 292.602 461.117 292.469 461.55C292.335 461.983 292.252 462.433 292.219 462.9C292.185 463.467 292.402 463.967 292.869 464.4C293.369 464.833 294.185 465.033 295.319 465L300.419 464.8C302.319 464.733 303.835 464.967 304.969 465.5C306.135 466.033 306.969 466.733 307.469 467.6C308.002 468.467 308.252 469.383 308.219 470.35C308.185 471.95 307.652 473.367 306.619 474.6C305.585 475.833 304.185 476.8 302.419 477.5C300.652 478.2 298.652 478.533 296.419 478.5C293.685 478.433 291.469 477.867 289.769 476.8C288.069 475.767 287.219 474.267 287.219 472.3C287.219 471.767 287.319 471.2 287.519 470.6C287.719 470 288.035 469.483 288.469 469.05C288.902 468.617 289.352 468.517 289.819 468.75L290.419 469.05ZM297.369 458.75C298.735 458.75 299.935 458.3 300.969 457.4C302.035 456.5 302.569 455.167 302.569 453.4C302.569 452.367 302.319 451.4 301.819 450.5C301.352 449.567 300.652 448.8 299.719 448.2C298.819 447.6 297.685 447.3 296.319 447.3C294.552 447.3 293.219 447.817 292.319 448.85C291.452 449.883 291.019 451.15 291.019 452.65C291.019 454.483 291.619 455.967 292.819 457.1C294.019 458.2 295.535 458.75 297.369 458.75ZM321.819 469.75C319.719 469.75 318.035 469.117 316.769 467.85C315.535 466.583 314.919 464.6 314.919 461.9L314.969 450.25C314.969 449.583 314.902 449.1 314.769 448.8C314.669 448.467 314.335 448.283 313.769 448.25L311.819 448.05C311.585 448.05 311.469 447.917 311.469 447.65C311.469 447.15 311.635 446.7 311.969 446.3C312.502 446.133 313.202 446 314.069 445.9C314.969 445.8 315.719 445.75 316.319 445.75C317.052 445.75 317.519 445.933 317.719 446.3C317.952 446.633 318.035 447.2 317.969 448C317.902 448.9 317.835 450.183 317.769 451.85C317.702 453.483 317.669 455.183 317.669 456.95C317.669 457.717 317.669 458.5 317.669 459.3C317.702 460.067 317.735 460.833 317.769 461.6C317.902 463.433 318.419 464.817 319.319 465.75C320.219 466.65 321.385 467.117 322.819 467.15C324.052 467.183 325.319 466.85 326.619 466.15C327.919 465.417 328.969 464.467 329.769 463.3C329.902 461.2 329.985 458.983 330.019 456.65C330.085 454.317 330.119 452.233 330.119 450.4C330.119 449.733 330.035 449.25 329.869 448.95C329.702 448.617 329.335 448.433 328.769 448.4L327.069 448.35C326.835 448.35 326.719 448.217 326.719 447.95C326.719 447.45 326.885 447 327.219 446.6C327.785 446.433 328.469 446.283 329.269 446.15C330.102 445.983 330.835 445.9 331.469 445.9C332.635 445.9 333.169 446.6 333.069 448C333.002 449.033 332.935 450.317 332.869 451.85C332.802 453.35 332.735 454.95 332.669 456.65C332.635 458.35 332.602 459.983 332.569 461.55C332.535 463.083 332.519 464.383 332.519 465.45C332.485 466.017 332.585 466.4 332.819 466.6C333.052 466.8 333.369 466.883 333.769 466.85L336.169 466.7C336.369 466.7 336.469 466.817 336.469 467.05C336.469 467.217 336.419 467.467 336.319 467.8C336.252 468.133 336.135 468.383 335.969 468.55C335.535 468.783 334.869 469.017 333.969 469.25C333.069 469.45 332.335 469.533 331.769 469.5C331.202 469.467 330.735 469.117 330.369 468.45C330.002 467.75 329.785 466.933 329.719 466C328.719 467.133 327.519 468.05 326.119 468.75C324.719 469.417 323.285 469.75 321.819 469.75ZM368.921 469C368.587 469 368.421 468.833 368.421 468.5C368.421 468.367 368.437 468.183 368.471 467.95C368.504 467.683 368.587 467.45 368.721 467.25C369.887 467.117 370.671 466.833 371.071 466.4C371.504 465.967 371.771 465.333 371.871 464.5C371.937 464.1 371.971 463.317 371.971 462.15C372.004 460.983 372.021 459.717 372.021 458.35C372.021 457.317 372.004 456.35 371.971 455.45C371.971 454.55 371.954 453.867 371.921 453.4C371.821 451.533 371.254 450.15 370.221 449.25C369.187 448.35 367.987 447.883 366.621 447.85C365.221 447.817 363.937 448.267 362.771 449.2C361.604 450.1 360.737 451.3 360.171 452.8C360.171 453 360.171 453.183 360.171 453.35V459.15C360.171 460.617 360.171 461.867 360.171 462.9C360.204 463.9 360.237 464.8 360.271 465.6C360.304 466.067 360.404 466.383 360.571 466.55C360.737 466.683 360.921 466.783 361.121 466.85C361.354 466.883 361.721 466.917 362.221 466.95C362.754 466.983 363.237 467 363.671 467C363.671 467.167 363.654 467.417 363.621 467.75C363.587 468.083 363.537 468.333 363.471 468.5C363.371 468.833 363.187 469 362.921 469H354.371C354.037 469 353.871 468.833 353.871 468.5C353.871 468.367 353.887 468.183 353.921 467.95C353.954 467.683 354.037 467.45 354.171 467.25C355.337 467.117 356.121 466.833 356.521 466.4C356.954 465.967 357.221 465.333 357.321 464.5C357.387 464.1 357.421 463.317 357.421 462.15C357.454 460.983 357.471 459.717 357.471 458.35C357.471 457.317 357.454 456.35 357.421 455.45C357.421 454.55 357.404 453.867 357.371 453.4C357.271 451.533 356.704 450.15 355.671 449.25C354.671 448.35 353.487 447.883 352.121 447.85C350.787 447.817 349.537 448.267 348.371 449.2C347.204 450.1 346.337 451.317 345.771 452.85C345.737 453.783 345.721 454.767 345.721 455.8C345.721 456.8 345.721 457.767 345.721 458.7C345.721 460.2 345.721 461.517 345.721 462.65C345.754 463.783 345.787 464.783 345.821 465.65C345.854 466.35 346.137 466.75 346.671 466.85C346.904 466.883 347.321 466.917 347.921 466.95C348.521 466.983 348.954 467 349.221 467C349.221 467.167 349.204 467.383 349.171 467.65C349.171 467.917 349.137 468.133 349.071 468.3C348.971 468.633 348.854 468.833 348.721 468.9C348.587 468.967 348.487 469 348.421 469H340.071C339.737 469 339.571 468.833 339.571 468.5C339.571 468.367 339.587 468.183 339.621 467.95C339.654 467.683 339.737 467.45 339.871 467.25C341.037 467.117 341.804 466.833 342.171 466.4C342.571 465.967 342.804 465.333 342.871 464.5C342.904 464.067 342.937 463.383 342.971 462.45C343.004 461.517 343.021 460.45 343.021 459.25C343.054 458.017 343.071 456.8 343.071 455.6C343.071 454.467 343.054 453.45 343.021 452.55C343.021 451.617 343.004 450.933 342.971 450.5C342.937 449.833 342.804 449.35 342.571 449.05C342.371 448.75 341.987 448.567 341.421 448.5L339.571 448.3C339.337 448.3 339.221 448.167 339.221 447.9C339.221 447.4 339.387 446.95 339.721 446.55C340.254 446.383 340.921 446.25 341.721 446.15C342.521 446.05 343.221 446 343.821 446C344.554 446 345.071 446.183 345.371 446.55C345.671 446.883 345.821 447.45 345.821 448.25C345.821 448.55 345.821 448.85 345.821 449.15C346.721 447.983 347.821 447.05 349.121 446.35C350.421 445.617 351.804 445.25 353.271 445.25C354.804 445.25 356.121 445.633 357.221 446.4C358.354 447.133 359.171 448.267 359.671 449.8C360.604 448.433 361.771 447.333 363.171 446.5C364.604 445.667 366.137 445.25 367.771 445.25C369.837 445.25 371.504 445.917 372.771 447.25C374.071 448.55 374.721 450.55 374.721 453.25V459.15C374.721 460.617 374.721 461.867 374.721 462.9C374.754 463.9 374.787 464.8 374.821 465.6C374.854 466.067 374.954 466.383 375.121 466.55C375.287 466.683 375.471 466.783 375.671 466.85C375.904 466.883 376.271 466.917 376.771 466.95C377.304 466.983 377.787 467 378.221 467C378.221 467.167 378.204 467.417 378.171 467.75C378.137 468.083 378.087 468.333 378.021 468.5C377.921 468.833 377.737 469 377.471 469H368.921ZM399.257 469.5C398.59 469.5 398.057 469.217 397.657 468.65C397.257 468.05 397.024 467.3 396.957 466.4C395.757 467.533 394.39 468.383 392.857 468.95C391.324 469.483 389.857 469.75 388.457 469.75C386.624 469.75 385.04 469.183 383.707 468.05C382.374 466.883 381.707 465.25 381.707 463.15C381.707 461.317 382.224 459.867 383.257 458.8C384.29 457.7 385.924 456.883 388.157 456.35C390.424 455.783 393.357 455.4 396.957 455.2V454.1C396.957 453.4 396.924 452.65 396.857 451.85C396.79 451.05 396.574 450.3 396.207 449.6C395.874 448.9 395.307 448.333 394.507 447.9C393.707 447.433 392.59 447.2 391.157 447.2C389.524 447.2 388.307 447.567 387.507 448.3C386.707 449 386.24 450.067 386.107 451.5C385.974 451.5 385.824 451.517 385.657 451.55C385.49 451.55 385.324 451.55 385.157 451.55C384.557 451.55 383.99 451.467 383.457 451.3C382.924 451.133 382.657 450.783 382.657 450.25C382.657 449.717 382.957 449.167 383.557 448.6C384.157 448 384.957 447.45 385.957 446.95C386.957 446.45 388.057 446.05 389.257 445.75C390.457 445.417 391.64 445.25 392.807 445.25C394.007 445.25 395.14 445.467 396.207 445.9C397.307 446.3 398.19 447 398.857 448C399.524 449 399.824 450.383 399.757 452.15C399.724 453.083 399.69 454.267 399.657 455.7C399.657 457.1 399.657 458.5 399.657 459.9C399.657 460.933 399.657 461.9 399.657 462.8C399.69 463.7 399.707 464.467 399.707 465.1C399.74 466 399.84 466.533 400.007 466.7C400.207 466.833 400.49 466.883 400.857 466.85C400.89 466.85 400.907 466.85 400.907 466.85L403.407 466.7C403.607 466.7 403.707 466.817 403.707 467.05C403.707 467.217 403.657 467.467 403.557 467.8C403.49 468.133 403.374 468.383 403.207 468.55C403.007 468.65 402.64 468.783 402.107 468.95C401.607 469.083 401.074 469.217 400.507 469.35C399.974 469.45 399.557 469.5 399.257 469.5ZM396.907 464.5L396.957 457.6C395.557 457.467 394.307 457.4 393.207 457.4C391.007 457.4 389.307 457.617 388.107 458.05C386.907 458.483 386.074 459.1 385.607 459.9C385.14 460.667 384.907 461.583 384.907 462.65C384.907 464.217 385.407 465.367 386.407 466.1C387.407 466.8 388.59 467.15 389.957 467.15C391.157 467.15 392.374 466.917 393.607 466.45C394.874 465.983 395.974 465.333 396.907 464.5Z" fill="black"/>
<path d="M119.068 183H129.068M139.068 183H129.068M129.068 183V173M129.068 183V193" stroke="#EDC664" stroke-width="8" stroke-linecap="round"/>
<path d="M139.068 305L119.068 305" stroke="#EDC664" stroke-width="8" stroke-linecap="round"/>
</svg>
