<svg width="286" height="326" viewBox="0 0 286 326" fill="none" xmlns="http://www.w3.org/2000/svg">
<path d="M250.568 57.5V19.5H210.068L197.454 9L187.685 26.5L177.915 9L168.146 26.5L158.376 9L148.607 26.5L138.838 9L129.068 26.5L119.299 9L108.329 19.5H87.0681V296H129.068M250.568 57.5H268.068V123.5C268.068 123.5 281.568 124 281.568 134C281.568 144 254.068 152.5 254.068 142.5C254.068 132.5 281.568 142.83 281.568 152.833C281.568 162.83 254.068 173.25 254.068 163.25C254.068 153.25 281.568 161.67 281.568 171.667C281.568 181.67 254.068 194 254.068 184C254.068 174 281.763 180.5 281.568 190.5C281.373 200.5 268.068 204 268.068 204V264.5H250.568M250.568 57.5H187.685V83M250.568 264.5L250.568 296H153.568M250.568 264.5H187.685V232M153.568 296L153.568 274M153.568 296V321.5M129.068 274L129.068 296M129.068 296V321.5" stroke="#EDC664" stroke-width="8" stroke-linecap="round"/>
<path d="M187.911 77.6621C180.561 77.402 178.196 83.8769 172.699 88.7625C129.004 127.6 130.856 201.76 176.399 238.414C180.805 241.96 182.676 246.295 188.322 246.636C195.518 247.071 197.647 240.25 202.917 235.33C245.226 195.829 245.977 124.135 201.478 87.118C196.513 82.9879 194.365 77.8904 187.911 77.6621Z" fill="#C46561" stroke="#9F4040" stroke-width="8" stroke-linecap="round"/>
<path d="M199.815 103.012C207.216 101.779 212.766 100.751 212.766 100.751M185.22 123.774C194.471 122.336 204.543 122.13 204.543 122.13M142.257 145.359C142.257 145.359 152.124 147.003 161.786 147.209M156.03 184.622C156.03 184.622 165.486 187.088 174.737 187.294M193.032 168.999C203.927 168.793 211.738 167.149 211.738 167.149M204.543 210.934C212.766 211.345 219.961 210.728 219.961 210.728M180.287 229.023C172.886 228.612 164.253 225.734 164.253 225.734" stroke="#9F4040" stroke-width="8" stroke-linecap="round"/>
<path d="M94.2872 98.1065C142.098 108.669 120.466 142.114 125.381 170.342C130.295 198.571 136.327 239.033 96.6598 241.521C11.9377 246.833 21.1666 81.9522 94.2872 98.1065Z" fill="#F0A65F" stroke="#E28540" stroke-width="8" stroke-linecap="round"/>
<path d="M127.48 210.265C127.48 210.265 121.466 214.541 112.317 213.997M90.5214 225.723C90.5214 225.723 82.2045 226.35 74.3852 223.979M108.842 184.597C108.842 184.597 99.3685 186.481 92.0143 185.987M116.529 145.658C116.529 145.658 107.184 141.142 96.8727 145.536M55.6949 197.588C55.6949 197.588 46.6494 196.98 40.7866 195.15M77.7003 125.367C77.7003 125.367 69.9787 124.848 61.7403 126.657M124.098 119.356C124.098 119.356 119.018 114.914 108.271 114.192M80.7068 164.078C80.7068 164.078 71.3984 163.453 64.0441 162.959" stroke="#E28540" stroke-width="8" stroke-linecap="round"/>
<path d="M15.0681 109H25.0681M35.0681 109H25.0681M25.0681 109V99M25.0681 109V119" stroke="#EDC664" stroke-width="8" stroke-linecap="round"/>
<path d="M35.0681 231L15.0681 231" stroke="#EDC664" stroke-width="8" stroke-linecap="round"/>
</svg>
